<svg xmlns="http://www.w3.org/2000/svg" viewBox="0 0 1920 1080"><defs><style>.cls-1,.cls-3{fill:#fff;}.cls-2,.cls-5{fill:none;}.cls-2,.cls-3,.cls-5,.cls-6{stroke:#000;stroke-width:5px;}.cls-2,.cls-3{stroke-miterlimit:10;}.cls-4,.cls-7,.cls-8{font-size:99.42302px;font-family:ArialMT, Arial;}.cls-7,.cls-8{fill:red;}.cls-7{letter-spacing:-0.05518em;}</style></defs><g id="圖層_3" data-name="圖層 3"><rect class="cls-1" width="1920" height="1080"/></g><g id="圖層_1" data-name="圖層 1"><polygon class="cls-2" points="296.28 383.106 296.28 575.903 452.694 479.505 296.28 383.106"/><circle class="cls-3" cx="450.6323" cy="483.53297" r="23.05511"/><polygon class="cls-2" points="296.28 712.041 296.28 904.838 452.694 808.44 296.28 712.041"/><circle class="cls-3" cx="450.6323" cy="812.46797" r="23.05511"/><line class="cls-3" x1="18" y1="479.50477" x2="296.28026" y2="479.50477"/><line class="cls-3" x1="27" y1="808.50477" x2="296.28026" y2="808.50477"/><path class="cls-2" d="M925.68042,906.18569c46.326,0,83.88062-43.7368,83.88062-97.68888s-37.55463-97.68888-83.88062-97.68888v-.00715H754.14406V906.19285H925.68042"/><path class="cls-2" d="M925.68042,248.18569c46.326,0,83.88062-43.7368,83.88062-97.68888s-37.55463-97.68888-83.88062-97.68888v-.00715H754.14406V248.19285H925.68042"/><polyline class="cls-3" points="113.5 1002.5 624.5 1002.5 624.5 874.5 754.144 874.5"/><line class="cls-3" x1="473.68741" y1="812.46797" x2="754.14406" y2="812.46797"/><polyline class="cls-3" points="473.687 483.533 613.916 483.533 613.916 492.66 613.916 759.213 754.144 759.213"/><text class="cls-4" transform="translate(40.88719 780.50052)">I2</text><text class="cls-4" transform="translate(1574.3645 710.50052)">O0</text><text class="cls-4" transform="translate(1574.3645 226.50052)">O1</text><text class="cls-4" transform="translate(40.88719 971.50052)">I1</text><text class="cls-4" transform="translate(40.88719 449.50052)">I3</text><path id="OR_Gate" data-name="OR Gate" class="cls-5" d="M1251.2366,647.74238c26.36312,39.7905,32.85014,69.89788,32.85014,102.82414,0,39.738-11.44468,70.60485-32.85014,102.91262,82.76284,0,209.58229-34.39912,255.94592-100.764C1460.353,690.99634,1332.67248,647.74238,1251.2366,647.74238Z"/><path id="OR_Gate-2" data-name="OR Gate" class="cls-5" d="M1251.2366,163.74238c26.36312,39.7905,32.85014,69.89788,32.85014,102.82414,0,39.738-11.44468,70.60485-32.85014,102.91262,82.76284,0,209.58229-34.39912,255.94592-100.764C1460.353,206.99634,1332.67248,163.74238,1251.2366,163.74238Z"/><line class="cls-5" x1="1009.56104" y1="808.49681" x2="1274" y2="808.49681"/><polyline class="cls-5" points="216.149 479.505 216.149 321.085 1088.5 321.085 1088.5 727.553 1198.819 727.553 1283.308 727.553"/><circle class="cls-6" cx="216.5" cy="479.5" r="13"/><circle class="cls-6" cx="613.5" cy="479.5" r="13"/><circle class="cls-6" cx="1088.5" cy="317.5" r="13"/><circle class="cls-6" cx="148.5" cy="808.5" r="13"/><line class="cls-3" x1="122.02778" y1="1002.5" x2="26" y2="1002.5"/><polyline class="cls-5" points="148.5 808.5 148.5 112 754.144 112"/><polyline class="cls-5" points="613.5 479.5 613.5 179.583 754.144 179.583"/><line class="cls-5" x1="1088.5" y1="321.08511" x2="1276.74385" y2="321.08511"/><polyline class="cls-5" points="1009.561 150.497 1088.5 150.497 1088.5 248.193 1283.308 248.193"/><line class="cls-5" x1="1507.18252" y1="268.71515" x2="1702.36111" y2="268.71515"/><line class="cls-6" x1="1507" y1="752.71515" x2="1702.36111" y2="752.71515"/></g><g id="圖層_2" data-name="圖層 2"><text class="cls-7" transform="translate(1113.20679 835.18475)">A</text><text class="cls-8" transform="translate(1113.22583 285.18475)">B</text></g></svg>