<svg xmlns="http://www.w3.org/2000/svg" viewBox="0 0 1920 1080"><defs><style>.cls-1,.cls-2{fill:#fff;}.cls-2,.cls-3,.cls-4{stroke:#000;stroke-width:5px;}.cls-2{stroke-miterlimit:10;}.cls-3{fill:none;}.cls-5,.cls-6,.cls-7,.cls-8{font-size:99.42302px;font-family:ArialMT, Arial;}.cls-6{letter-spacing:-0.05518em;}.cls-7,.cls-8{fill:red;}.cls-8{letter-spacing:-0.01807em;}</style></defs><g id="圖層_3" data-name="圖層 3"><rect class="cls-1" width="1920" height="1080"/></g><g id="圖層_1" data-name="圖層 1"><path class="cls-2" d="M1132.622,671.30653c46.326,0,83.88062-43.7368,83.88062-97.68888s-37.55463-97.68888-83.88062-97.68888v-.00716H961.08563V671.31368H1132.622"/><path class="cls-2" d="M1132.622,949.30653c46.326,0,83.88062-43.7368,83.88062-97.68888s-37.55463-97.68888-83.88062-97.68888v-.00716H961.08563V949.31368H1132.622"/><path id="OR_Gate" data-name="OR Gate" class="cls-3" d="M1391.60276,604.74927c26.36312,39.7905,32.85014,69.89787,32.85014,102.82414,0,39.738-11.44468,70.60484-32.85014,102.91262,82.76284,0,209.58229-34.39913,255.94592-100.764C1600.71915,648.00323,1473.03864,604.74927,1391.60276,604.74927Z"/><path id="OR_Gate-2" data-name="OR Gate" class="cls-3" d="M549.23811,131.16009c26.50428,39.6966,33.0982,69.78075,33.21516,102.7068.14114,39.73771-11.19383,70.645-32.48439,103.02866,82.76231-.294,209.45877-35.14334,255.58638-101.67247C758.50681,173.671,630.67347,130.87083,549.23811,131.16009Z"/><path id="OR_Gate-3" data-name="OR Gate" class="cls-3" d="M523.23827,131.25244c26.50428,39.69661,33.09821,69.78075,33.21516,102.70681.14115,39.7377-11.19383,70.645-32.48439,103.02865"/><path id="OR_Gate-4" data-name="OR Gate" class="cls-3" d="M1203.23811,172.16009c26.50428,39.6966,33.0982,69.78075,33.21516,102.7068.14114,39.73771-11.19383,70.645-32.48439,103.02866,82.76231-.294,209.45877-35.14334,255.58638-101.67247C1412.50681,214.671,1284.67347,171.87083,1203.23811,172.16009Z"/><path id="OR_Gate-5" data-name="OR Gate" class="cls-3" d="M1177.23827,172.25244c26.50428,39.69661,33.09821,69.78075,33.21516,102.70681.14115,39.7377-11.19383,70.645-32.48439,103.02865"/><line class="cls-3" x1="806" y1="235.22308" x2="1203.23811" y2="235.22308"/><line class="cls-3" x1="1459.55526" y1="276.22308" x2="1876.29412" y2="276.22308"/><line class="cls-3" x1="1647.54868" y1="709.72204" x2="1876.5" y2="709.72204"/><polyline class="cls-3" points="1216.503 573.618 1331.397 573.618 1331.397 682.882 1422.983 682.882"/><polyline class="cls-3" points="1216.503 851.618 1331.397 851.618 1331.397 732.882 1422.983 732.882"/><line class="cls-3" x1="299.5" y1="191.5" x2="549.02846" y2="191.5"/><line class="cls-3" x1="299.5" y1="276.5" x2="549.02846" y2="276.5"/><polyline class="cls-3" points="308.5 422.5 890 422.5 890 321.702 1203.238 321.702"/><polyline class="cls-3" points="961.086 538.468 890.766 538.468 890.766 422.5"/><polyline class="cls-3" points="834.085 235.223 834.085 595.149 961.086 595.149"/><polyline class="cls-3" points="458 191.5 458 821.106 961.086 821.106"/><polyline class="cls-3" points="366.085 276.5 366.085 890.5 961.086 890.5"/><circle class="cls-4" cx="890.5" cy="422.5" r="13"/><circle class="cls-4" cx="834.5" cy="234.5" r="13"/><circle class="cls-4" cx="458.5" cy="191.5" r="13"/><circle class="cls-4" cx="366.5" cy="276.5" r="13"/><text class="cls-5" transform="translate(1792.57739 247.13562)">S</text><text class="cls-5" transform="translate(1669.72876 671.13562)">Cout</text><text class="cls-5" transform="translate(114.14331 448.13562)">Cin</text><text class="cls-5" transform="translate(170.5774 307.13562)">B</text><text class="cls-6" transform="translate(165.32007 204.13562)">A</text></g><g id="圖層_2" data-name="圖層 2"><text class="cls-7" transform="translate(857.81128 269.13577)">X</text><text class="cls-7" transform="translate(857.81128 628.13577)">X</text><text class="cls-8" transform="translate(1234.70923 605.13577)">Y</text><text class="cls-7" transform="translate(1243.60278 890.13577)">Z</text></g></svg>