<svg xmlns="http://www.w3.org/2000/svg" viewBox="0 0 4668 4585"><defs><style>.cls-1{fill:#fff;}.cls-2{fill:#94ffbb;}.cls-12,.cls-13,.cls-14,.cls-2,.cls-7{stroke:#000;}.cls-11,.cls-12,.cls-13,.cls-14,.cls-2,.cls-7{stroke-miterlimit:10;}.cls-11,.cls-2,.cls-7{stroke-width:10px;}.cls-3{font-size:120.37634px;}.cls-3,.cls-4,.cls-6,.cls-9{font-family:ArialMT, Arial;}.cls-4,.cls-9{font-size:70px;}.cls-5{letter-spacing:-0.03711em;}.cls-6{font-size:120px;}.cls-12,.cls-13,.cls-14,.cls-7{fill:none;}.cls-11,.cls-8,.cls-9{fill:red;}.cls-10{fill:#000;}.cls-11{stroke:red;opacity:0.7;}.cls-12,.cls-13,.cls-14{stroke-width:12px;}.cls-13{stroke-dasharray:48.72684 48.72684;}.cls-14{stroke-dasharray:49.41177 49.41177;}</style></defs><g id="圖層_1" data-name="圖層 1"><rect class="cls-1" width="4668" height="4585"/></g><g id="圖層_2" data-name="圖層 2"><rect class="cls-2" x="515.96204" y="528.32288" width="626.38757" height="289.50511" rx="144.75241"/><text class="cls-3" transform="translate(621.73005 705.18262)">S_reset</text><rect class="cls-2" x="1732.96204" y="541.32288" width="753.53796" height="289.50511" rx="144.75241"/><text class="cls-3" transform="translate(1838.7301 718.18262)">S_in_mem</text><text class="cls-4" transform="translate(2014.7301 4182.18262)">S_in_mem</text><text class="cls-4" transform="translate(3481.72998 4182.18262)">S_in_mem</text><rect class="cls-2" x="369.96204" y="2097.32288" width="753.53796" height="289.50511" rx="144.75241"/><text class="cls-3" transform="translate(551.7301 2286.18262)">S_done</text><text class="cls-3" transform="translate(3109.72998 3476.18262)">addr &lt;= 32&apos;d0;</text><text class="cls-3" transform="translate(1641.72998 3174.18262)">always@(posedge clk or posedge rst)</text><text class="cls-3" transform="translate(227.75891 3501.03613)">rst</text><text class="cls-3" transform="translate(235.7301 3964.18262)">clk</text><text class="cls-3" transform="translate(2406.7301 1814.18262)">False</text><text class="cls-3" transform="translate(1536.7301 2442.18262)"><tspan class="cls-5">T</tspan><tspan x="69.06348" y="0">rue</tspan></text><rect class="cls-2" x="2240.86101" y="2009.03009" width="1281.53796" height="433.17712"/><text class="cls-3" transform="translate(2439.94604 2185.50012)">branch condition<tspan x="-128.75195" y="144.45166">addr == 32&apos;d479999?</tspan></text><text class="cls-6" transform="translate(695.76715 142.24417)">reset</text><line x1="829.16073" y1="181.18799" x2="829.16073" y2="464.52133"/><line class="cls-7" x1="829.16074" y1="181.18799" x2="829.16074" y2="404.16974"/><path d="M828.66074,465.0213c-10.53711-28.398-28.5156-63.63278-47.5586-85.47357l47.5586,17.20209,47.54879-17.20209C857.16663,401.38852,839.188,436.62332,828.66074,465.0213Z" transform="translate(0.5 -0.5)"/><text class="cls-4" transform="translate(515.58795 945.71289)">en_in_mem = 1&apos;b0;<tspan x="0" y="84">en_out_mem = 1&apos;b0;</tspan><tspan x="0" y="168">out_mem_read = 1&apos;b0;</tspan><tspan x="0" y="252">out_mem_write = 1&apos;b0;</tspan><tspan x="0" y="336">done = 1&apos;b0;</tspan><tspan x="0" y="420">in_mem_addr = 32&apos;b0;</tspan><tspan x="0" y="504">out_mem_addr = 32&apos;b0;</tspan></text><text class="cls-4" transform="translate(407.58795 2544.71289)">en_in_mem = 1&apos;b0;<tspan x="0" y="84">en_out_mem = 1&apos;b0;</tspan><tspan x="0" y="168">out_mem_read = 1&apos;b0;</tspan><tspan x="0" y="252">out_mem_write = 1&apos;b0;</tspan><tspan class="cls-8"><tspan x="0" y="336">done = 1&apos;b1;</tspan></tspan><tspan x="0" y="420">in_mem_addr = 32&apos;b0;</tspan><tspan x="0" y="504">out_mem_addr = 32&apos;b0;</tspan></text><text class="cls-9" transform="translate(1804.58789 959.71289)">en_in_mem = 1&apos;b1;<tspan class="cls-10"><tspan x="0" y="84">en_out_mem = 1&apos;b0;</tspan><tspan x="0" y="168">out_mem_read = 1&apos;b0;</tspan><tspan x="0" y="252">out_mem_write = 1&apos;b0;</tspan><tspan x="0" y="336">done = 1&apos;b0;</tspan><tspan x="0" y="420">in_mem_addr = addr;</tspan><tspan x="0" y="504">out_mem_addr = addr;</tspan></tspan></text><rect class="cls-2" x="3209.96204" y="541.32288" width="830.53796" height="289.50511" rx="144.75241"/><text class="cls-3" transform="translate(3315.73022 718.18262)">S_out_mem</text><text class="cls-4" transform="translate(1268.73022 4196.18262)">S_out_mem</text><text class="cls-4" transform="translate(2701.73022 4196.18262)">S_out_mem</text><text class="cls-3" transform="translate(792.46997 4395.18262)"><tspan xml:space="preserve">when current state is in S_out_mem,  do addr &lt;= addr+1</tspan></text><text class="cls-4" transform="translate(3281.58789 959.71289)">en_in_mem = 1&apos;b0;<tspan class="cls-8"><tspan x="0" y="84">en_out_mem = 1&apos;b1;</tspan></tspan><tspan x="0" y="168">out_mem_read = 1&apos;b0;</tspan><tspan class="cls-8"><tspan x="0" y="252">out_mem_write = 1&apos;b1;</tspan></tspan><tspan x="0" y="336">done = 1&apos;b0;</tspan><tspan x="0" y="420">in_mem_addr = addr;</tspan><tspan x="0" y="504">out_mem_addr = addr;</tspan></text><line x1="1218.24468" y1="686.07543" x2="1677.81915" y2="686.07543"/><line class="cls-7" x1="1218.24469" y1="686.07544" x2="1617.46753" y2="686.07544"/><path d="M1677.31909,686.57544c-28.398,10.53711-63.63269,28.51556-85.47351,47.55859l17.202-47.55859-17.202-47.54883C1613.6864,658.06952,1648.92114,676.04816,1677.31909,686.57544Z" transform="translate(0.5 -0.5)"/><line x1="2624.24468" y1="686.07543" x2="3083.81915" y2="686.07543"/><line class="cls-7" x1="2624.24469" y1="686.07544" x2="3023.46753" y2="686.07544"/><path d="M3083.31909,686.57544c-28.398,10.53711-63.63269,28.51556-85.47351,47.55859l17.202-47.55859-17.202-47.54883C3019.6864,658.06952,3054.92114,676.04816,3083.31909,686.57544Z" transform="translate(0.5 -0.5)"/><polyline class="cls-7" points="4102.053 686.075 4227.67 686.075 4227.67 2229.183 3635.426 2229.183"/><path d="M3574.57446,2229.68262c28.398-10.53711,63.63282-28.51563,85.47364-47.5586l-17.20215,47.5586,17.20215,47.54883C3638.20728,2258.18848,3602.97241,2240.21,3574.57446,2229.68262Z" transform="translate(0.5 -0.5)"/><line x1="2276.5" y1="1944.5" x2="2276.5" y2="1536.7766"/><line class="cls-7" x1="2276.5" y1="1944.5" x2="2276.5" y2="1597.12817"/><path d="M2276,1537.27661c10.53711,28.398,28.51562,63.63281,47.55859,85.47363L2276,1605.5481l-47.54883,17.20214C2247.49414,1600.90942,2265.47266,1565.67456,2276,1537.27661Z" transform="translate(0.5 -0.5)"/><path class="cls-7" d="M960.54312,2006.07446a235.01429,235.01429,0,0,0,54.02329-150.519c.00006-128.79321-102.37348-233.20081-228.65775-233.20129-126.30363-.00049-228.29686,103.70666-228.65852,232.51892a235.93632,235.93632,0,0,0,24.39074,105.57275" transform="translate(0.5 -0.5)"/><path d="M615.15585,2010.63672c-24.30932-18.07031-58.58364-37.81848-86.45221-45.75562l49.25142-11.49048,30.49654-40.33312C604.385,1941.74756,608.50912,1981.0885,615.15585,2010.63672Z" transform="translate(0.5 -0.5)"/><line x1="2156.52128" y1="2242.31799" x2="1217.26471" y2="2242.31799"/><line class="cls-7" x1="2156.52124" y1="2242.31787" x2="1277.61633" y2="2242.31787"/><path d="M1216.76471,2242.81787c28.398-10.53686,63.63281-28.51538,85.47357-47.55859l-17.20209,47.55859,17.20209,47.54883C1280.39752,2271.324,1245.16272,2253.34521,1216.76471,2242.81787Z" transform="translate(0.5 -0.5)"/><polyline class="cls-7" points="460.5 3617.911 751.73 3617.911 751.73 3332.665 769.926 3332.665 1756.479 3332.665 1756.479 3617.911 3001.5 3617.911"/><polyline class="cls-7" points="460.5 4050.5 748.649 4050.505 748.649 3764.181 1109.5 3764.181 1109.5 4050.505 1466.73 4050.505 1466.73 3764.5 1829.5 3764.5 1829.5 4050.505 2189.67 4050.505 2189.67 3764.181 2550.5 3764.181 2550.5 4049.183 2907.628 4049.183 2907.628 3764.181 3265.628 3764.181 3265.628 4050.505 3621.032 4050.505 3621.032 3764.181 3987.16 3764.181 3987.16 4050.505 4275.5 4050.5"/><rect class="cls-11" x="688.5" y="3261.5" width="122" height="420"/><rect class="cls-11" x="1415.5" y="3697.5" width="122" height="420"/><rect class="cls-11" x="2866.5" y="3681.5" width="122" height="420"/><line x1="40.5" y1="3141.5" x2="1601.03191" y2="3141.5"/><line class="cls-12" x1="40.5" y1="3141.5" x2="65.5" y2="3141.5"/><line class="cls-13" x1="114.22684" y1="3141.5" x2="1551.66846" y2="3141.5"/><line class="cls-12" x1="1576.03186" y1="3141.5" x2="1601.03186" y2="3141.5"/><line x1="3716.5" y1="3141.5" x2="4606.5" y2="3141.5"/><line class="cls-12" x1="3716.5" y1="3141.5" x2="3741.5" y2="3141.5"/><line class="cls-14" x1="3790.91187" y1="3141.5" x2="4556.79395" y2="3141.5"/><line class="cls-12" x1="4581.5" y1="3141.5" x2="4606.5" y2="3141.5"/></g></svg>