<svg xmlns="http://www.w3.org/2000/svg" viewBox="0 0 3245 2436"><defs><style>.cls-1{fill:#fff;}.cls-2{fill:#94ffbb;}.cls-2,.cls-4{stroke:#000;stroke-miterlimit:10;stroke-width:10px;}.cls-3{font-size:120px;font-family:ArialMT, Arial;}.cls-4{fill:none;}</style></defs><g id="圖層_3" data-name="圖層 3"><rect class="cls-1" width="3245" height="2436"/></g><g id="圖層_1" data-name="圖層 1"><rect class="cls-2" x="1329.14636" y="570.4021" width="467.48291" height="275.6084" rx="96.07447"/><text class="cls-3" transform="translate(1439.46008 740.21313)">S0/1</text><rect class="cls-2" x="1928.14636" y="1060.4021" width="467.48291" height="275.6084" rx="96.07447"/><text class="cls-3" transform="translate(2038.46008 1230.21313)">S2/0</text><rect class="cls-2" x="709.14636" y="1060.4021" width="467.48291" height="275.6084" rx="96.07447"/><text class="cls-3" transform="translate(819.46008 1230.21313)">S1/0</text><rect class="cls-2" x="1329.14636" y="1542.4021" width="467.48291" height="275.6084" rx="96.07447"/><text class="cls-3" transform="translate(1439.46008 1712.21313)">S3/1</text><path class="cls-4" d="M1846.38892,710.03632s281.35888-.34818,322.73925,249.04876"/><path d="M2174.16675,1019.23212c-13.08179-27.31934-34.197-60.7688-55.15149-80.783l48.92859,12.79565,45.783-21.46448C2196.75391,953.26593,2182.06177,989.9928,2174.16675,1019.23212Z"/><path class="cls-4" d="M1196.5929,732.69629c-94.04157,16.795-265.70362,78.221-267.75959,302.87579"/><path d="M1256.61108,726.37628c-29.39624-7.30307-66.41687-21.23831-90.24585-37.72574l22.40064,45.3425L1176.976,783.16418C1196.55591,761.80347,1229.56494,740.0061,1256.61108,726.37628Z"/><path class="cls-4" d="M1262.62842,1191.7229c92.3822-24.31873,258.536-99.37817,242.48157-323.46808"/><path d="M1203.31458,1202.85889c29.88928,4.91052,67.91247,15.81714,92.99255,30.33069l-25.98169-43.3899,7.78906-49.9613C1260.3197,1162.7074,1229.17456,1187.09387,1203.31458,1202.85889Z"/><path class="cls-4" d="M1256.72058,1697.07214s-281.35895.348-322.73926-249.04895"/><path d="M928.94287,1387.87622c13.08167,27.31934,34.1969,60.7688,55.15137,80.783l-48.92859-12.79565-45.783,21.46447C906.35559,1453.84241,921.04779,1417.1156,928.94287,1387.87622Z"/><path class="cls-4" d="M1941.29761,1674.41211c94.04162-16.795,265.70361-78.22095,267.75952-302.87586"/><path d="M1881.27942,1680.73218c29.39636,7.303,66.417,21.23828,90.246,37.72571l-22.40063-45.34253,11.78979-49.17115C1941.33472,1645.30493,1908.32568,1667.10229,1881.27942,1680.73218Z"/><text class="cls-3" transform="translate(890.46008 1713.57935)">1</text><text class="cls-3" transform="translate(890.46008 793.94556)">1</text><text class="cls-3" transform="translate(1529.51892 2322.21313)">0</text><text class="cls-3" transform="translate(2860.45996 1230.21307)">1</text><text class="cls-3" transform="translate(2209.45996 1713.57886)">0</text><text class="cls-3" transform="translate(174.45996 1230.21289)">0</text><text class="cls-3" transform="translate(1491.45996 1198.21289)">1</text><text class="cls-3" transform="translate(2209.45996 793.94507)">0</text><text class="cls-3" transform="translate(1429.49939 201.94507)">reset</text><line x1="1562.8927" y1="240.88889" x2="1562.8927" y2="524.22222"/><line class="cls-4" x1="1562.8927" y1="240.88889" x2="1562.8927" y2="463.87064"/><path d="M1562.8927,524.22223c-10.53711-28.398-28.51562-63.63281-47.55859-85.4736l47.55859,17.20208,47.54883-17.20208C1591.39856,460.58942,1573.42,495.82422,1562.8927,524.22223Z"/></g><g id="圖層_2" data-name="圖層 2"><path class="cls-4" d="M1409.58655,1942.8468a183.527,183.527,0,1,0,308.06738-55.44177"/><path d="M1440.47852,1890.995c-23.28736,19.3695-56.43323,40.958-83.82727,50.4038l49.80493,8.78638,32.65149,38.60925C1433.48193,1960.369,1435.45361,1920.86169,1440.47852,1890.995Z"/><path class="cls-4" d="M2520.91211,1351.50769a183.527,183.527,0,1,0-55.44165-308.0675"/><path d="M2469.0603,1320.61572c19.36939,23.28723,40.958,56.43311,50.40381,83.82727l8.78638-49.80493,38.60937-32.65161C2538.43433,1327.61218,2498.927,1325.6405,2469.0603,1320.61572Z"/><path class="cls-4" d="M572.55838,1044.905a183.52706,183.52706,0,1,0,55.44156,308.06744"/><path d="M624.41022,1075.79694c-19.36954-23.2873-40.95813-56.43317-50.40384-83.82727L565.22,1041.7746l-38.60931,32.65155C555.03607,1068.80042,594.54346,1070.77209,624.41022,1075.79694Z"/></g></svg>