<svg xmlns="http://www.w3.org/2000/svg" viewBox="0 0 880.34043 713.87234"><defs><style>.cls-1{fill:#fff;}.cls-2{fill:#c9e5d0;}.cls-2,.cls-3,.cls-4,.cls-8{stroke:#231815;stroke-miterlimit:10;stroke-width:3px;}.cls-3,.cls-7{fill:#c6e1cd;}.cls-4{fill:#f8f6be;}.cls-5{font-size:32px;}.cls-10,.cls-5,.cls-6,.cls-9{fill:#231815;}.cls-10,.cls-5,.cls-6{font-family:ArialMT, Arial;}.cls-6{font-size:21.94409px;}.cls-8{fill:none;}.cls-10{font-size:16px;}</style></defs><g id="圖層_4" data-name="圖層 4"><rect class="cls-1" width="880.34043" height="713.87234"/></g><g id="arrow"><rect class="cls-2" x="50.80851" y="32.41229" width="217.53191" height="616.60899"/><rect class="cls-3" x="457.53191" y="260.68085" width="326.80851" height="147.82979"/><rect class="cls-4" x="457.53191" y="32.41229" width="326.80851" height="160.09835"/><rect class="cls-4" x="457.53191" y="522.6383" width="326.80851" height="126.38298"/><text class="cls-5" transform="translate(518.67044 118.9118)">Input_memory</text><text class="cls-5" transform="translate(539.8203 596.8266)">Output_memory</text><text class="cls-5" transform="translate(89.44474 351.07354)">Controller</text><text class="cls-5" transform="translate(548.91261 346.65192)">Grayscale</text><text class="cls-6" transform="translate(144.6315 83.25751)">en_in_mem</text><text class="cls-6" transform="translate(124.81295 138.40644)">in_mem_addr</text><text class="cls-6" transform="translate(466.03858 84.887)">en</text><text class="cls-6" transform="translate(466.03836 140.03593)">addr</text><text class="cls-6" transform="translate(612.67682 181.17775)">q</text><text class="cls-6" transform="translate(613.45554 547.31183)">d</text><text class="cls-6" transform="translate(210.47469 448.84906)">done</text><text class="cls-6" transform="translate(131.20556 542.94532)">en_out_mem</text><text class="cls-6" transform="translate(109.28353 575.7634)">out_mem_write</text><text class="cls-6" transform="translate(53.64837 681.33625)">*clock pin and reset pin is ignored in this graph</text><text class="cls-6" transform="translate(111.69392 606.56025)">out_mem_read</text><text class="cls-6" transform="translate(111.38732 634.95868)">out_mem_addr</text><text class="cls-6" transform="translate(468.83402 544.8418)">en</text><text class="cls-6" transform="translate(567.9719 391.6594)">gray_data</text><text class="cls-6" transform="translate(557.80356 286.86213)">in_mem_data</text><text class="cls-6" transform="translate(468.83387 577.65989)">en_w</text><text class="cls-6" transform="translate(468.83408 608.45673)">en_r</text><text class="cls-6" transform="translate(468.83414 636.85517)">addr</text></g><g id="block_and_text" data-name="block and text"><line class="cls-7" x1="269.95745" y1="75.91489" x2="457.53191" y2="75.91489"/><line class="cls-8" x1="269.95745" y1="75.91489" x2="444.85807" y2="75.91489"/><path class="cls-9" d="M457.53192,75.91489c-5.96359,2.2128-13.36288,5.98828-17.94946,9.98731l3.61243-9.98731-3.61243-9.98524C444.169,69.92865,451.56833,73.70417,457.53192,75.91489Z"/><line class="cls-7" x1="269.95745" y1="132.76596" x2="457.53191" y2="132.76596"/><line class="cls-8" x1="269.95745" y1="132.76595" x2="444.85807" y2="132.76595"/><path class="cls-9" d="M457.53192,132.766c-5.96359,2.2128-13.36288,5.98829-17.94946,9.98731l3.61243-9.98731-3.61243-9.98524C444.169,126.77972,451.56833,130.55523,457.53192,132.766Z"/><line class="cls-7" x1="620.93619" y1="192.51068" x2="620.93619" y2="260.68089"/><line class="cls-8" x1="620.93619" y1="192.51069" x2="620.93619" y2="248.00705"/><path class="cls-9" d="M620.93619,260.68088c-2.21277-5.96356-5.98828-13.36288-9.9873-17.94946l9.9873,3.61246,9.98523-3.61246C626.92246,247.318,623.14695,254.71732,620.93619,260.68088Z"/><line class="cls-7" x1="620.93596" y1="408.51036" x2="620.93596" y2="522.63802"/><line class="cls-8" x1="620.93595" y1="408.51035" x2="620.93595" y2="509.96418"/><path class="cls-9" d="M620.936,522.638c-2.21277-5.96356-5.98828-13.36285-9.98731-17.94946L620.936,508.301l9.98529-3.61249C626.92221,509.27515,623.1467,516.67444,620.936,522.638Z"/><line class="cls-7" x1="269.95745" y1="452.17021" x2="457.53191" y2="452.17021"/><line class="cls-8" x1="269.95745" y1="452.17021" x2="444.85807" y2="452.17021"/><path class="cls-9" d="M457.53192,452.17021c-5.96359,2.2128-13.36288,5.98828-17.94946,9.9873l3.61243-9.9873-3.61243-9.98525C444.169,446.184,451.56833,449.95949,457.53192,452.17021Z"/><line class="cls-7" x1="269.95745" y1="536.42553" x2="457.53191" y2="536.42553"/><line class="cls-8" x1="269.95745" y1="536.42553" x2="444.85807" y2="536.42553"/><path class="cls-9" d="M457.53192,536.42553c-5.96359,2.2128-13.36288,5.98828-17.94946,9.9873l3.61243-9.9873-3.61243-9.98525C444.169,530.43929,451.56833,534.2148,457.53192,536.42553Z"/><line class="cls-7" x1="269.95745" y1="573.5307" x2="457.53191" y2="573.5307"/><line class="cls-8" x1="269.95745" y1="573.5307" x2="444.85807" y2="573.5307"/><path class="cls-9" d="M457.53192,573.5307c-5.96359,2.2128-13.36288,5.98828-17.94946,9.98731l3.61243-9.98731-3.61243-9.98524C444.169,567.54446,451.56833,571.32,457.53192,573.5307Z"/><line class="cls-7" x1="269.95745" y1="603.54633" x2="457.53191" y2="603.54633"/><line class="cls-8" x1="269.95745" y1="603.54633" x2="444.85807" y2="603.54633"/><path class="cls-9" d="M457.53192,603.54633c-5.96359,2.2128-13.36288,5.98828-17.94946,9.9873l3.61243-9.9873-3.61243-9.98525C444.169,597.56009,451.56833,601.3356,457.53192,603.54633Z"/><line class="cls-7" x1="269.95745" y1="631.14894" x2="457.53191" y2="631.14894"/><line class="cls-8" x1="269.95745" y1="631.14893" x2="444.85807" y2="631.14893"/><path class="cls-9" d="M457.53192,631.14893c-5.96359,2.2128-13.36288,5.98828-17.94946,9.98731l3.61243-9.98731-3.61243-9.98524C444.169,625.1627,451.56833,628.93821,457.53192,631.14893Z"/><line class="cls-3" x1="363.74468" y1="125.63153" x2="358.80851" y2="140.03583"/><line class="cls-3" x1="628.62367" y1="216.05563" x2="613.24871" y2="229.30088"/><line class="cls-3" x1="628.62367" y1="458.95156" x2="613.24871" y2="472.19681"/><line class="cls-3" x1="363.74468" y1="626.04255" x2="358.46809" y2="637.09638"/><text class="cls-10" transform="translate(355.20662 122.69453)">32</text><text class="cls-10" transform="translate(355.20662 621.14325)">32</text><text class="cls-10" transform="translate(599.875 471.81195)">8</text><text class="cls-10" transform="translate(590.57926 228.45299)">24</text><polygon class="cls-8" points="457.532 441.08 457.532 463.26 500.17 463.26 510.894 453.846 500.426 442.101 457.532 441.08"/></g></svg>