<svg xmlns="http://www.w3.org/2000/svg" viewBox="0 0 3848 2436"><defs><style>.cls-1{fill:#fff;}.cls-2,.cls-4,.cls-5{font-size:120px;}.cls-2{font-family:ArialMT, Arial;}.cls-3{fill:none;}.cls-3,.cls-6{stroke:#000;stroke-miterlimit:10;stroke-width:10px;}.cls-4{fill:#f0f;}.cls-4,.cls-5{font-family:DFKaiShu-SB-Estd-BF, DFKai-SB;}.cls-5{fill:blue;}.cls-6{fill:#94ffbb;}</style></defs><g id="圖層_3" data-name="圖層 3"><rect class="cls-1" width="3848" height="2436"/></g><g id="圖層_1" data-name="圖層 1"><text class="cls-2" transform="translate(3350.45996 1765.021)">0/1</text><text class="cls-2" transform="translate(317.45996 1765.021)">0/0</text><text class="cls-2" transform="translate(1824.45996 2185.021)">1/0</text><text class="cls-2" transform="translate(2621.45996 1091.021)">0/0</text><text class="cls-2" transform="translate(1749.45996 1567.021)">1/0</text><text class="cls-2" transform="translate(1150.45996 1157.021)">1/1</text><text class="cls-2" transform="translate(1834.36499 391.85059)">reset</text><line x1="1967.75829" y1="430.79438" x2="1967.75829" y2="714.12771"/><line class="cls-3" x1="1967.7583" y1="430.79437" x2="1967.7583" y2="653.77612"/><path d="M1967.7583,714.12769c-10.53711-28.398-28.51562-63.63276-47.55859-85.47358l47.55859,17.20209,47.54883-17.20209C1996.26416,650.49493,1978.28564,685.72974,1967.7583,714.12769Z"/><text class="cls-4" transform="translate(2928.75403 572.09375)">後半周期</text><text class="cls-5" transform="translate(2933.75403 393.09375)">前半周期</text></g><g id="圖層_2" data-name="圖層 2"><path class="cls-3" d="M3010.91211,1886.31531a183.52707,183.52707,0,1,0-55.44165-308.06751"/><path d="M2959.0603,1855.42334c19.36939,23.28723,40.958,56.43311,50.40381,83.82727l8.78638-49.80505,38.60937-32.65149C3028.43433,1862.4198,2988.927,1860.44812,2959.0603,1855.42334Z"/><path class="cls-3" d="M843.50818,1579.71252A183.52709,183.52709,0,1,0,898.94977,1887.78"/><path d="M895.36,1610.60449c-19.36954-23.28723-40.95813-56.4331-50.40384-83.82715l-8.78638,49.80494-38.60931,32.65148C825.9859,1603.608,865.49329,1605.57971,895.36,1610.60449Z"/><circle class="cls-6" cx="1969.07983" cy="950.26392" r="206.75"/><text class="cls-2" transform="translate(1895.69135 982.27094)">S0</text><circle class="cls-6" cx="2667.07983" cy="1733.01391" r="206.75"/><text class="cls-2" transform="translate(2593.69141 1765.02026)">S1</text><circle class="cls-6" cx="1218.07983" cy="1733.01391" r="206.75"/><text class="cls-2" transform="translate(1144.69141 1765.02075)">S2</text><path class="cls-3" d="M1285,1505s17.15735-371.14008,367.2572-496.43756"/><path d="M1710,991c-24.00342,18.47473-52.333,46.08179-67.5542,70.73889l2.34546-50.51965-30.51245-40.32111C1640.77954,982.61841,1679.75818,989.35529,1710,991Z"/><path class="cls-3" d="M2648.87671,1404.19653C2626.2,1286.31323,2541.67407,1028.56268,2232,950"/><path d="M2657,1464c6.46753-29.59131,19.34839-66.99182,35.1543-91.27832l-44.6897,23.676-49.48535-10.39234C2619.886,1404.97241,2642.60962,1437.35071,2657,1464Z"/><path class="cls-3" d="M2484,1920s-491.90869,208.0083-1022.22247,21.34058"/><path d="M1405.31915,1920c30.28974.09143,69.5918-4.38831,96.72382-14.56213l-32.78845,38.50512-.566,50.56165C1454.91333,1969.0116,1428.22156,1939.818,1405.31915,1920Z"/><path class="cls-3" d="M1831.92151,1190.05981s-73.03284,274.47205-324.579,388.16565"/><path d="M1451,1599.86316c22.61536-20.1499,48.89038-49.71924,62.30249-75.40527l1.28674,50.55773,33.32788,38.027C1520.64355,1603.25476,1481.28186,1599.333,1451,1599.86316Z"/></g></svg>