<svg xmlns="http://www.w3.org/2000/svg" viewBox="0 0 1186.21277 967.14894"><defs><style>.cls-1{fill:#fff;}.cls-2{font-size:41px;font-family:Arial-BoldMT, Arial;font-weight:700;}.cls-2,.cls-4,.cls-6,.cls-7{fill:#231815;}.cls-3,.cls-5{fill:none;}.cls-10,.cls-11,.cls-12,.cls-3,.cls-5{stroke:#231815;stroke-miterlimit:10;stroke-width:3px;}.cls-3{stroke-linecap:round;}.cls-4{font-size:13px;}.cls-4,.cls-7{font-family:ArialMT, Arial;}.cls-7{font-size:26px;}.cls-8{letter-spacing:-0.05521em;}.cls-9{letter-spacing:-0.05514em;}.cls-10{fill:#c2e4e2;}.cls-11{fill:#eff4d2;}.cls-12{fill:#ecf1d1;}</style></defs><g id="white"><rect class="cls-1" width="1186.21277" height="967.14894"/></g><g id="title"><text class="cls-2" transform="translate(501.96253 63.27689)">internal</text></g><g id="line"><line class="cls-3" x1="568.98378" y1="166.74921" x2="583.02633" y2="154.23857"/><text class="cls-4" transform="translate(568.77488 154.80602)">18</text><line class="cls-5" x1="335.49442" y1="160.68085" x2="809.27347" y2="160.68085"/><path class="cls-6" d="M816.51572,160.68085a36.26508,36.26508,0,0,0-10.25683,5.707l2.0642-5.707-2.0642-5.70585A36.23408,36.23408,0,0,0,816.51572,160.68085Z"/><line class="cls-3" x1="568.98378" y1="182.75745" x2="583.02633" y2="170.24681"/><text class="cls-4" transform="translate(568.77472 173.08251)">18</text><line class="cls-5" x1="335.49442" y1="176.50213" x2="809.27347" y2="176.50213"/><path class="cls-6" d="M816.51572,176.50213a36.2653,36.2653,0,0,0-10.25683,5.707l2.0642-5.707-2.0642-5.70586A36.23386,36.23386,0,0,0,816.51572,176.50213Z"/><line class="cls-5" x1="335.49442" y1="192.3234" x2="809.27347" y2="192.3234"/><path class="cls-6" d="M816.51572,192.3234a36.26579,36.26579,0,0,0-10.25683,5.707l2.0642-5.707-2.0642-5.70585A36.23383,36.23383,0,0,0,816.51572,192.3234Z"/></g><g id="block_text" data-name="block text"><text class="cls-7" transform="translate(534.83416 136.59589)">system</text><text class="cls-4" transform="translate(543.4867 163.4649)">ROM_IF_<tspan class="cls-8" x="56.3418" y="0">A</tspan></text><text class="cls-4" transform="translate(538.44217 195.23339)">ROM_IF_OE</text><text class="cls-4" transform="translate(543.12766 179.34942)">ROM_W_<tspan class="cls-9" x="57.05859" y="0">A</tspan></text><text class="cls-4" transform="translate(543.48661 163.4649)">ROM_IF_<tspan class="cls-8" x="56.3418" y="0">A</tspan></text><text class="cls-4" transform="translate(538.44211 195.23339)">ROM_IF_OE</text><text class="cls-4" transform="translate(543.1276 179.34942)">ROM_W_<tspan class="cls-8" x="57.05957" y="0">A</tspan></text><rect class="cls-10" x="194.73372" y="98.04255" width="791.48936" height="800.46133"/><rect class="cls-11" x="562.90393" y="357.44681" width="175.65957" height="109.78723"/><rect class="cls-11" x="562.90393" y="767.26984" width="175.65957" height="109.78723"/><rect class="cls-11" x="562.90393" y="494.58899" width="175.65957" height="109.78723"/><rect class="cls-11" x="819.24436" y="357.44681" width="128.17021" height="382.46809"/><rect class="cls-11" x="256.01031" y="145.45934" width="276.25532" height="195.1364"/><rect class="cls-11" x="234.81883" y="362.04255" width="84" height="51.06383"/><rect class="cls-12" x="562.90393" y="632.46133" width="175.65957" height="109.78723"/><line class="cls-5" x1="739.41459" y1="412.34042" x2="811.15146" y2="411.64471"/><path class="cls-6" d="M818.39328,411.57446a36.26712,36.26712,0,0,0-10.201,5.80624l2.00878-5.72678-2.11944-5.68557A36.234,36.234,0,0,0,818.39328,411.57446Z"/><line class="cls-3" x1="770.4784" y1="418.59574" x2="784.52095" y2="406.08511"/><line class="cls-3" x1="144.6809" y1="393.72759" x2="158.72345" y2="381.21696"/><text class="cls-4" transform="translate(134.83451 382.18857)">9</text><line class="cls-5" x1="739.41459" y1="549.48263" x2="811.15146" y2="548.78689"/><path class="cls-6" d="M818.39328,548.71667a36.26663,36.26663,0,0,0-10.201,5.80624l2.00878-5.72681-2.11944-5.68554A36.234,36.234,0,0,0,818.39328,548.71667Z"/><line class="cls-3" x1="770.4784" y1="555.73794" x2="784.52095" y2="543.22731"/><text class="cls-4" transform="translate(760.13825 543.2273)">20</text><line class="cls-5" x1="739.41459" y1="687.35503" x2="811.15146" y2="686.65929"/><path class="cls-6" d="M818.39328,686.589a36.26747,36.26747,0,0,0-10.201,5.80628l2.00878-5.72681-2.11944-5.68555A36.23413,36.23413,0,0,0,818.39328,686.589Z"/><line class="cls-3" x1="770.4784" y1="693.61034" x2="784.52095" y2="681.0997"/><text class="cls-4" transform="translate(760.13825 681.09969)">20</text><line class="cls-5" x1="739.41459" y1="802.21545" x2="1011.6619" y2="800.40813"/><path class="cls-6" d="M1018.9039,800.3601a36.26624,36.26624,0,0,0-10.21868,5.775l2.0263-5.72058-2.102-5.692A36.23578,36.23578,0,0,0,1018.9039,800.3601Z"/><line class="cls-3" x1="770.4784" y1="807.38137" x2="784.52095" y2="794.87073"/><text class="cls-4" transform="translate(760.13825 794.87072)">9</text><line class="cls-5" x1="947.41459" y1="550.57201" x2="1008.25754" y2="550.34603"/><path class="cls-6" d="M1015.49967,550.31915a36.26631,36.26631,0,0,0-10.23554,5.74508l2.043-5.71466-2.08545-5.69815A36.23579,36.23579,0,0,0,1015.49967,550.31915Z"/><line class="cls-3" x1="962.10208" y1="556.82735" x2="976.14464" y2="544.31671"/><text class="cls-4" transform="translate(959.5264 544.31649)">9</text><line class="cls-3" x1="748.9032" y1="230.40823" x2="762.94576" y2="217.8976"/><text class="cls-4" transform="translate(730.31179 221.31719)">18</text><line class="cls-5" x1="532.26563" y1="223.96595" x2="1006.04471" y2="223.96595"/><path class="cls-6" d="M1013.2869,223.966a36.26636,36.26636,0,0,0-10.25684,5.70705l2.06427-5.70705-2.06427-5.70584A36.23507,36.23507,0,0,0,1013.2869,223.966Z"/><line class="cls-3" x1="748.9032" y1="278.02265" x2="762.94576" y2="265.51201"/><text class="cls-4" transform="translate(730.31179 268.87924)">18</text><line class="cls-3" x1="424.13797" y1="360.81403" x2="438.18053" y2="348.30339"/><text class="cls-4" transform="translate(409.05634 357.88102)">3</text><line class="cls-3" x1="375.79755" y1="360.81403" x2="389.8401" y2="348.30339"/><text class="cls-4" transform="translate(360.71592 357.88102)">3</text><text class="cls-4" transform="translate(386.96808 404.74366)">[0]</text><text class="cls-4" transform="translate(387.85166 543.2272)">[1]</text><text class="cls-4" transform="translate(436.19236 515.79598)">[1]</text><text class="cls-4" transform="translate(437.07608 653.66875)">[2]</text><text class="cls-4" transform="translate(386.96796 676.78081)">[2]</text><text class="cls-4" transform="translate(435.30851 385.33941)">[0]</text><line class="cls-5" x1="532.26563" y1="271.42979" x2="1006.04471" y2="271.42979"/><path class="cls-6" d="M1013.2869,271.42979a36.26631,36.26631,0,0,0-10.25684,5.707l2.06427-5.707-2.06427-5.70586A36.23463,36.23463,0,0,0,1013.2869,271.42979Z"/><line class="cls-5" x1="532.26563" y1="287.25106" x2="1006.04471" y2="287.25106"/><path class="cls-6" d="M1013.2869,287.25106a36.26656,36.26656,0,0,0-10.25684,5.707l2.06427-5.707-2.06427-5.70586A36.23438,36.23438,0,0,0,1013.2869,287.25106Z"/><line class="cls-5" x1="532.26563" y1="303.07233" x2="1006.04471" y2="303.07233"/><path class="cls-6" d="M1013.2869,303.07233a36.26683,36.26683,0,0,0-10.25684,5.707l2.06427-5.707-2.06427-5.70585A36.2346,36.2346,0,0,0,1013.2869,303.07233Z"/><line class="cls-5" x1="532.26563" y1="318.89362" x2="1006.04471" y2="318.89362"/><path class="cls-6" d="M1013.2869,318.89362a36.26607,36.26607,0,0,0-10.25684,5.707l2.06427-5.707-2.06427-5.70585A36.23485,36.23485,0,0,0,1013.2869,318.89362Z"/><line class="cls-5" x1="532.26563" y1="239.78724" x2="1006.04471" y2="239.78724"/><path class="cls-6" d="M1013.2869,239.78724a36.26607,36.26607,0,0,0-10.25684,5.707l2.06427-5.707-2.06427-5.70586A36.23512,36.23512,0,0,0,1013.2869,239.78724Z"/><line class="cls-5" x1="532.26563" y1="255.60851" x2="1006.04471" y2="255.60851"/><path class="cls-6" d="M1013.2869,255.60851a36.26656,36.26656,0,0,0-10.25684,5.707l2.06427-5.707-2.06427-5.70585A36.23485,36.23485,0,0,0,1013.2869,255.60851Z"/><line class="cls-5" x1="532.26563" y1="208.14468" x2="1006.04471" y2="208.14468"/><path class="cls-6" d="M1013.2869,208.14468a36.26631,36.26631,0,0,0-10.25684,5.707l2.06427-5.707-2.06427-5.70586A36.23463,36.23463,0,0,0,1013.2869,208.14468Z"/><line class="cls-5" x1="128.86138" y1="387.57446" x2="227.57664" y2="387.47927"/><path class="cls-6" d="M234.81883,387.47228a36.266,36.266,0,0,0-10.25133,5.71692l2.05875-5.709-2.06976-5.70386A36.236,36.236,0,0,0,234.81883,387.47228Z"/><line class="cls-3" x1="144.6809" y1="461.32452" x2="158.72345" y2="448.81388"/><text class="cls-4" transform="translate(134.83451 449.7855)">9</text><line class="cls-5" x1="130.90394" y1="455.2225" x2="555.66175" y2="455.122"/><path class="cls-6" d="M562.90394,455.12029a36.26578,36.26578,0,0,0-10.2555,5.70948l2.0629-5.70752-2.06558-5.70539A36.23358,36.23358,0,0,0,562.90394,455.12029Z"/><line class="cls-3" x1="144.6809" y1="595.96289" x2="158.72345" y2="583.45225"/><text class="cls-4" transform="translate(134.83451 584.42387)">9</text><line class="cls-5" x1="130.90394" y1="589.86089" x2="555.66175" y2="589.76037"/><path class="cls-6" d="M562.90394,589.75866a36.26674,36.26674,0,0,0-10.2555,5.70947l2.0629-5.70752-2.06558-5.70538A36.23382,36.23382,0,0,0,562.90394,589.75866Z"/><line class="cls-3" x1="144.6809" y1="736.70329" x2="158.72345" y2="724.19265"/><text class="cls-4" transform="translate(134.83451 725.16427)">9</text><line class="cls-5" x1="130.90394" y1="730.60125" x2="555.66175" y2="730.50079"/><path class="cls-6" d="M562.90394,730.49908a36.265,36.265,0,0,0-10.2555,5.70947l2.0629-5.70752-2.06558-5.70538A36.23382,36.23382,0,0,0,562.90394,730.49908Z"/><line class="cls-3" x1="144.6809" y1="816.68852" x2="158.72345" y2="804.17788"/><text class="cls-4" transform="translate(134.83451 805.1495)">9</text><line class="cls-5" x1="130.90394" y1="810.58648" x2="555.66175" y2="810.48602"/><path class="cls-6" d="M562.90394,810.48431a36.26477,36.26477,0,0,0-10.2555,5.70947l2.0629-5.70752-2.06558-5.70538A36.23382,36.23382,0,0,0,562.90394,810.48431Z"/><line class="cls-5" x1="286.13797" y1="340.59576" x2="286.13797" y2="353.52377"/><path class="cls-6" d="M286.138,360.76595a36.26667,36.26667,0,0,0-5.707-10.25683l5.707,2.06427,5.70586-2.06427A36.23523,36.23523,0,0,0,286.138,360.76595Z"/><path class="cls-5" d="M277.96776,414.63873V447.8298s16.51064,5.10638,0,13.10638v123.4877s9.87234,4.00165,0,10.46973V707.23406l277.694,1.24414"/><path class="cls-6" d="M562.90394,708.51061a36.26619,36.26619,0,0,0-10.28229,5.66107l2.08978-5.69775-2.03867-5.715A36.23354,36.23354,0,0,0,562.90394,708.51061Z"/><path class="cls-5" d="M277.96776,583.48936"/><path class="cls-5" d="M324.94649,341.617V448.34042s13.53191,6.6383,0,12V584.42388s12.766,5.108,0,10.725V700.59576s12.95745,5.36169-.25532,12.89361v10.53192s12,5.74469,0,11.48932v51.383l230.28973.495"/><path class="cls-6" d="M562.22309,787.40423a36.26575,36.26575,0,0,0-10.26908,5.685l2.07651-5.70258-2.052-5.71027A36.2338,36.2338,0,0,0,562.22309,787.40423Z"/><path class="cls-5" d="M382.138,341.617V449.78548s11.48937,6.7121,0,9.52713V585.70214s10.46808,1.78723,0,9.44678V687.355H555.66175"/><path class="cls-6" d="M562.90394,687.355a36.26544,36.26544,0,0,0-10.25684,5.707l2.06424-5.707-2.06424-5.70587A36.235,36.235,0,0,0,562.90394,687.355Z"/><path class="cls-5" d="M431.15925,341.617V449.78548s13.27659,6.96741,0,9.52713v86.04911s10.97872,3.47784-1.02128,11.441v27.62112s15.149,6.46973,0,9.95911v70.82062H555.66175"/><path class="cls-6" d="M562.90394,665.20361a36.26642,36.26642,0,0,0-10.25684,5.707l2.06424-5.707-2.06424-5.70588A36.23528,36.23528,0,0,0,562.90394,665.20361Z"/><path class="cls-5" d="M485.79755,341.617v43.91488s9.95746,5.19144,0,11.40424v12.56641s9.95746,4.88043,0,11.5187v28.98358s14.04254,4.19486,0,9.30777v62.55973s13.27658,6.6383,0,10.21277v13.31512s10.97873,7.45352,0,12.13168v26.892s13.27658,3.83142,0,10.21442v51.31915H554.9809"/><path class="cls-6" d="M562.22309,645.95745a36.2665,36.2665,0,0,0-10.25684,5.707l2.06424-5.707-2.06424-5.70587A36.2346,36.2346,0,0,0,562.22309,645.95745Z"/><line class="cls-5" x1="486.81882" y1="375.42638" x2="555.66175" y2="375.42638"/><path class="cls-6" d="M562.90394,375.42638a36.26669,36.26669,0,0,0-10.25684,5.707l2.06424-5.707-2.06424-5.70584A36.23493,36.23493,0,0,0,562.90394,375.42638Z"/><line class="cls-5" x1="431.15925" y1="391.49621" x2="555.66175" y2="391.49621"/><path class="cls-6" d="M562.90394,391.49621a36.26642,36.26642,0,0,0-10.25684,5.707l2.06424-5.707-2.06424-5.70584A36.23542,36.23542,0,0,0,562.90394,391.49621Z"/><line class="cls-5" x1="382.90394" y1="415.27334" x2="555.66175" y2="415.27334"/><path class="cls-6" d="M562.90394,415.27334a36.26642,36.26642,0,0,0-10.25684,5.707l2.06424-5.707-2.06424-5.70584A36.23542,36.23542,0,0,0,562.90394,415.27334Z"/><line class="cls-5" x1="486.81882" y1="511.93392" x2="555.66175" y2="511.93392"/><path class="cls-6" d="M562.90394,511.93392a36.26618,36.26618,0,0,0-10.25684,5.707l2.06424-5.707-2.06424-5.70587A36.23427,36.23427,0,0,0,562.90394,511.93392Z"/><line class="cls-5" x1="431.15925" y1="528.00375" x2="555.66175" y2="528.00375"/><path class="cls-6" d="M562.90394,528.00375a36.26569,36.26569,0,0,0-10.25684,5.707l2.06424-5.707-2.06424-5.70588A36.23454,36.23454,0,0,0,562.90394,528.00375Z"/><line class="cls-5" x1="382.90394" y1="551.78088" x2="555.66175" y2="551.78088"/><path class="cls-6" d="M562.90394,551.78088a36.26642,36.26642,0,0,0-10.25684,5.707l2.06424-5.707L552.6471,546.075A36.2352,36.2352,0,0,0,562.90394,551.78088Z"/><text class="cls-7" transform="translate(301.54123 252.17911)">Controller</text><text class="cls-7" transform="translate(203.10032 352.08504)">Pad</text><text class="cls-7" transform="translate(624.23894 422.03783)">conv</text><text class="cls-7" transform="translate(624.23894 555.73806)">conv</text><text class="cls-7" transform="translate(826.33991 492.46157)">sat_adder</text><text class="cls-4" transform="translate(703.32935 414.63873)">result</text><text class="cls-4" transform="translate(827.14563 414.63873)">in0</text><text class="cls-4" transform="translate(827.14563 551.92345)">in1</text><text class="cls-4" transform="translate(918.39875 551.92345)">sum</text><text class="cls-4" transform="translate(827.14563 689.65293)">in2</text><text class="cls-4" transform="translate(567.91887 378.51119)">clear</text><text class="cls-4" transform="translate(279.19831 375.42634)">en</text><text class="cls-4" transform="translate(237.22992 391.49615)">Data_in</text><text class="cls-4" transform="translate(252.33851 406.91563)">Data_out</text><text class="cls-4" transform="translate(568.7767 396.93614)">if_w</text><text class="cls-4" transform="translate(568.77657 417.07365)">w_w</text><text class="cls-4" transform="translate(567.88681 459.31245)">w_in</text><text class="cls-4" transform="translate(567.91881 437.08912)">if_in</text><text class="cls-4" transform="translate(703.32935 551.78091)">result</text><text class="cls-4" transform="translate(567.91887 515.65337)">clear</text><text class="cls-4" transform="translate(568.7767 534.07833)">if_w</text><text class="cls-4" transform="translate(568.77657 554.21584)">w_w</text><text class="cls-4" transform="translate(567.88681 596.45464)">w_in</text><text class="cls-4" transform="translate(567.91881 574.2313)">if_in</text><text class="cls-7" transform="translate(624.23894 697.05236)">conv</text><text class="cls-4" transform="translate(703.32935 689.65325)">result</text><text class="cls-4" transform="translate(567.91887 653.52572)">clear</text><text class="cls-4" transform="translate(568.7767 671.95066)">if_w</text><text class="cls-4" transform="translate(568.77657 692.08817)">w_w</text><text class="cls-4" transform="translate(567.88681 734.32699)">w_in</text><text class="cls-4" transform="translate(567.91881 712.10365)">if_in</text><text class="cls-7" transform="translate(606.36661 854.32897)">Pooling</text><text class="cls-4" transform="translate(680.18799 804.17788)">Data_out</text><text class="cls-4" transform="translate(567.56488 790.54684)">en</text><text class="cls-4" transform="translate(566.56393 814.92941)">Data_in</text><text class="cls-4" transform="translate(1023.14235 802.21507)">RAM_POOL_D</text><text class="cls-4" transform="translate(1021.0998 552.06625)">RAM_CONV_D</text><text class="cls-4" transform="translate(1019.25509 323.95409)">DONE</text><text class="cls-4" transform="translate(1018.78106 211.11803)">ROM_W_OE</text><text class="cls-4" transform="translate(1018.78114 227.00201)">RAM_CONV_<tspan class="cls-9" x="80.90723" y="0">A</tspan></text><text class="cls-4" transform="translate(1018.78147 242.88653)">RAM_CONV_WE</text><text class="cls-4" transform="translate(1018.78148 258.77081)">RAM_CONV_OE</text><text class="cls-4" transform="translate(1018.78119 274.65508)">RAM_POOL_<tspan class="cls-8" x="79.47266" y="0">A</tspan></text><text class="cls-4" transform="translate(1018.78159 290.53942)">RAM_POOL_WE</text><text class="cls-4" transform="translate(1018.78186 306.42388)">RAM_POOL_OE</text><text class="cls-4" transform="translate(488.18277 323.95409)">DONE</text><text class="cls-4" transform="translate(449.42551 211.11803)">ROM_W_OE</text><text class="cls-4" transform="translate(436.4061 227.00201)">RAM_CONV_<tspan class="cls-9" x="80.90723" y="0">A</tspan></text><text class="cls-4" transform="translate(423.42008 242.88653)">RAM_CONV_WE</text><text class="cls-4" transform="translate(425.57828 258.77081)">RAM_CONV_OE</text><text class="cls-4" transform="translate(437.84171 274.65508)">RAM_POOL_<tspan class="cls-8" x="79.47266" y="0">A</tspan></text><text class="cls-4" transform="translate(424.85379 290.53942)">RAM_POOL_WE</text><text class="cls-4" transform="translate(427.0123 306.42388)">RAM_POOL_OE</text><text class="cls-4" transform="translate(55.94706 387.57464)">ROM_IF_Q</text><text class="cls-4" transform="translate(55.22928 457.26397)">ROM_W_Q</text><text class="cls-4" transform="translate(55.22928 592.75333)">ROM_W_Q</text><text class="cls-4" transform="translate(55.22953 734.32689)">ROM_W_Q</text><text class="cls-4" transform="translate(31.38065 814.92965)">RAM_CONV_Q</text><text class="cls-4" transform="translate(259.46134 334.54321)">pad_en</text><text class="cls-4" transform="translate(311.33194 334.54317)">pool_en</text><text class="cls-4" transform="translate(369.43467 334.54314)">sel_w</text><text class="cls-4" transform="translate(414.62259 334.5433)">sel_if</text><text class="cls-4" transform="translate(470.17118 334.54299)">clear</text></g></svg>