<svg xmlns="http://www.w3.org/2000/svg" viewBox="0 0 6307 5425"><defs><style>.cls-1{fill:#fff;}.cls-2{fill:#94ffbb;}.cls-10,.cls-2{stroke:#000;}.cls-10,.cls-17,.cls-2{stroke-miterlimit:10;stroke-width:10px;}.cls-3{font-size:120.37634px;}.cls-11,.cls-15,.cls-3,.cls-5,.cls-6,.cls-9{font-family:ArialMT, Arial;}.cls-4{letter-spacing:-0.03711em;}.cls-5{font-size:120px;}.cls-6,.cls-9{font-size:100px;}.cls-7,.cls-9{fill:#f0f;}.cls-8{letter-spacing:-0.03711em;}.cls-10,.cls-17{fill:none;}.cls-11,.cls-15{font-size:70px;}.cls-12,.cls-15{fill:red;}.cls-13{letter-spacing:-0.05518em;}.cls-14{letter-spacing:-0.01807em;}.cls-16{fill:#000;}.cls-17{stroke:#f0f;}</style></defs><g id="圖層_1" data-name="圖層 1"><rect class="cls-1" width="6307" height="5425"/></g><g id="圖層_2" data-name="圖層 2"><rect class="cls-2" x="4663.46247" y="674.44788" width="830.53796" height="289.50511" rx="144.75241"/><text class="cls-3" transform="translate(4807.88428 851.30762)">WRITE_C</text><rect class="cls-2" x="1732.46198" y="674.44788" width="753.53796" height="289.50511" rx="144.75241"/><text class="cls-3" transform="translate(1851.72681 851.30762)">READ_W</text><rect class="cls-2" x="452.46204" y="4800.82288" width="753.53796" height="289.50511" rx="144.75241"/><text class="cls-3" transform="translate(634.2301 4989.68262)">S_done</text><text class="cls-3" transform="translate(2546.22998 4519.68262)">False</text><text class="cls-3" transform="translate(1684.2301 5147.68262)"><tspan class="cls-4">T</tspan><tspan x="69.06348" y="0">rue</tspan></text><rect class="cls-2" x="2323.36101" y="4712.53009" width="1281.53796" height="433.17712"/><text class="cls-3" transform="translate(2522.44604 4889)">branch condition<tspan x="-128.75195" y="144.45166">addr == 32&apos;d479999?</tspan></text><text class="cls-5" transform="translate(695.26715 263.74417)">reset</text><text class="cls-6" transform="translate(2486.26709 674.74417)">count_w==18&apos;d9</text><text class="cls-6" transform="translate(4044.26709 674.74417)">count == 4&apos;d9</text><text class="cls-6" transform="translate(3105.26709 1952.74414)"> <tspan class="cls-7" x="27.7832" y="0">if address==18&apos;d65535</tspan></text><text class="cls-6" transform="translate(3109.26709 2082.74414)">else if column==18&apos;d255</text><text class="cls-6" transform="translate(4444.26709 1607.74414)"><tspan class="cls-8">T</tspan><tspan x="57.37305" y="0">rue</tspan></text><text class="cls-9" transform="translate(3818.26709 2566.74414)"><tspan class="cls-8">T</tspan><tspan x="57.37305" y="0">rue</tspan></text><text class="cls-6" transform="translate(4442.26709 964.74414)"><tspan class="cls-8">T</tspan><tspan x="57.37305" y="0">rue</tspan></text><text class="cls-6" transform="translate(5580.26709 2565.74414)"><tspan class="cls-8">T</tspan><tspan x="57.37305" y="0">rue</tspan></text><text class="cls-6" transform="translate(2680.26709 963.74414)"><tspan class="cls-8">T</tspan><tspan x="57.37305" y="0">rue</tspan></text><text class="cls-6" transform="translate(1034.26708 2817.74414)"><tspan class="cls-8">T</tspan><tspan x="57.37305" y="0">rue</tspan></text><text class="cls-6" transform="translate(4444.26709 2129.74414)">False</text><text class="cls-9" transform="translate(4444.26709 2009.74414)">False</text><text class="cls-9" transform="translate(4444.26709 1741.74414)">False</text><text class="cls-6" transform="translate(4965.26709 2297.74414)">False</text><text class="cls-6" transform="translate(3159.72437 2336.74414)">False</text><text class="cls-6" transform="translate(3518.26709 444.74414)">False</text><text class="cls-6" transform="translate(1990.26709 444.74414)">False</text><text class="cls-6" transform="translate(1165.26709 2082.74414)">False</text><text class="cls-6" transform="translate(5460.26709 2371.74414)"><tspan xml:space="preserve">count ==  4&apos;d3</tspan></text><line x1="828.66073" y1="302.68799" x2="828.66073" y2="586.02133"/><line class="cls-10" x1="828.66074" y1="302.68799" x2="828.66074" y2="525.66974"/><path d="M828.66074,586.0213c-10.53711-28.398-28.5156-63.63278-47.5586-85.47357l47.5586,17.20209,47.54879-17.20209C857.16663,522.38852,839.188,557.62332,828.66074,586.0213Z"/><text class="cls-11" transform="translate(4700.08789 1070.21289)">ROM_IF_OE = 1&apos;b0;<tspan x="0" y="84">ROM_W_OE = 1&apos;b0;</tspan><tspan class="cls-12"><tspan x="0" y="168">RAM_CONV_WE = 1&apos;b1;</tspan></tspan><tspan x="0" y="252">RAM_CONV_OE = 1&apos;b0;</tspan><tspan x="0" y="336">RAM_POOL_WE = 1&apos;b0;</tspan><tspan x="0" y="420">RAM_POOL_OE = 1&apos;b0;</tspan><tspan x="0" y="504">done = 1&apos;b0;</tspan><tspan class="cls-12"><tspan x="0" y="588">RAM_CONV_</tspan><tspan class="cls-13" x="435.6543" y="588">A</tspan><tspan x="478.48145" y="588" xml:space="preserve"> = address;</tspan></tspan><tspan x="0" y="672">RAM_POOL_</tspan><tspan class="cls-13" x="427.92969" y="672">A</tspan><tspan x="470.75684" y="672" xml:space="preserve"> = 18&apos;b0;</tspan><tspan x="0" y="756">clear = 1&apos;b0;</tspan></text><rect class="cls-2" x="1340.96198" y="2512.15662" width="830.53796" height="289.50511" rx="144.75241"/><text class="cls-3" transform="translate(1489.79224 2689.01611)">WRITE_<tspan class="cls-14" x="454.76172" y="0">P</tspan></text><text class="cls-11" transform="translate(1465.08789 2957.21289)">ROM_IF_OE = 1&apos;b0;<tspan x="0" y="84">ROM_W_OE = 1&apos;b0;</tspan><tspan x="0" y="168">RAM_CONV_WE = 1&apos;b0;</tspan><tspan x="0" y="252">RAM_CONV_OE = 1&apos;b0;</tspan><tspan class="cls-12"><tspan x="0" y="336">RAM_POOL_WE = 1&apos;b1;</tspan></tspan><tspan x="0" y="420">RAM_POOL_OE = 1&apos;b0;</tspan><tspan x="0" y="504">done = 1&apos;b0;</tspan><tspan x="0" y="588">RAM_CONV_</tspan><tspan class="cls-13" x="435.6543" y="588">A</tspan><tspan x="478.48145" y="588" xml:space="preserve"> = </tspan><tspan x="558.25684" y="588">18&apos;b0</tspan><tspan x="727.34375" y="588">;</tspan><tspan class="cls-12"><tspan x="0" y="672">RAM_POOL_</tspan><tspan class="cls-13" x="427.92969" y="672">A</tspan><tspan x="470.75684" y="672" xml:space="preserve"> = address2;</tspan></tspan><tspan x="0" y="756">clear = 1&apos;b0;</tspan></text><text class="cls-15" transform="translate(3292.08789 1070.21289)">ROM_IF_OE = 1&apos;b0;<tspan class="cls-16"><tspan x="0" y="84">ROM_W_OE = 1&apos;b0;</tspan><tspan x="0" y="168">RAM_CONV_WE = 1&apos;b0;</tspan><tspan x="0" y="252">RAM_CONV_OE = 1&apos;b0;</tspan><tspan x="0" y="336">RAM_POOL_WE = 1&apos;b0;</tspan><tspan x="0" y="420">RAM_POOL_OE = 1&apos;b0;</tspan><tspan x="0" y="504">done = 1&apos;b0;</tspan></tspan><tspan x="0" y="588">RAM_CONV_</tspan><tspan class="cls-13" x="435.6543" y="588">A</tspan><tspan x="478.48145" y="588" xml:space="preserve"> = address;</tspan><tspan class="cls-16"><tspan x="0" y="672">RAM_POOL_</tspan><tspan class="cls-13" x="427.92969" y="672">A</tspan><tspan x="470.75684" y="672" xml:space="preserve"> = 18&apos;b0;</tspan><tspan x="0" y="756">clear = 1&apos;b0;</tspan></tspan></text><text class="cls-15" transform="translate(4788.08789 2943.21289)">ROM_IF_OE = 1&apos;b1;<tspan class="cls-16"><tspan x="0" y="84">ROM_W_OE = 1&apos;b0;</tspan><tspan x="0" y="168">RAM_CONV_WE = 1&apos;b0;</tspan><tspan x="0" y="252">RAM_CONV_OE = 1&apos;b0;</tspan><tspan x="0" y="336">RAM_POOL_WE = 1&apos;b0;</tspan><tspan x="0" y="420">RAM_POOL_OE = 1&apos;b0;</tspan><tspan x="0" y="504">done = 1&apos;b0;</tspan></tspan><tspan x="0" y="588">RAM_CONV_</tspan><tspan class="cls-13" x="435.6543" y="588">A</tspan><tspan x="478.48145" y="588" xml:space="preserve"> = address;</tspan><tspan class="cls-16"><tspan x="0" y="672">RAM_POOL_</tspan><tspan class="cls-13" x="427.92969" y="672">A</tspan><tspan x="470.75684" y="672" xml:space="preserve"> = 18&apos;b0;</tspan><tspan x="0" y="756">clear = 1&apos;b0;</tspan></tspan></text><text class="cls-11" transform="translate(1776.08789 1070.21289)">ROM_IF_OE = 1&apos;b0;<tspan class="cls-12"><tspan x="0" y="84">ROM_W_OE = 1&apos;b1;</tspan></tspan><tspan x="0" y="168">RAM_CONV_WE = 1&apos;b0;</tspan><tspan x="0" y="252">RAM_CONV_OE = 1&apos;b0;</tspan><tspan x="0" y="336">RAM_POOL_WE = 1&apos;b0;</tspan><tspan x="0" y="420">RAM_POOL_OE = 1&apos;b0;</tspan><tspan x="0" y="504">done = 1&apos;b0;</tspan><tspan x="0" y="588">RAM_CONV_</tspan><tspan class="cls-13" x="435.6543" y="588">A</tspan><tspan x="478.48145" y="588" xml:space="preserve"> = 18&apos;b0;</tspan><tspan x="0" y="672">RAM_POOL_</tspan><tspan class="cls-13" x="427.92969" y="672">A</tspan><tspan x="470.75684" y="672" xml:space="preserve"> = 18&apos;b0;</tspan><tspan x="0" y="756">clear = 1&apos;b0;</tspan></text><rect class="cls-2" x="381.46198" y="674.44788" width="753.53796" height="289.50511" rx="144.75241"/><text class="cls-3" transform="translate(645.64278 851.30762)">INI<tspan class="cls-14" x="153.8208" y="0">T</tspan></text><text class="cls-11" transform="translate(425.08789 1070.21289)">ROM_IF_OE = 1&apos;b0;<tspan x="0" y="84">ROM_W_OE = 1&apos;b0;</tspan><tspan x="0" y="168">RAM_CONV_WE = 1&apos;b0;</tspan><tspan x="0" y="252">RAM_CONV_OE = 1&apos;b0;</tspan><tspan x="0" y="336">RAM_POOL_WE = 1&apos;b0;</tspan><tspan x="0" y="420">RAM_POOL_OE = 1&apos;b0;</tspan><tspan x="0" y="504">done = 1&apos;b0;</tspan><tspan x="0" y="588">RAM_CONV_</tspan><tspan class="cls-13" x="435.6543" y="588">A</tspan><tspan x="478.48145" y="588" xml:space="preserve"> = 18&apos;b0;</tspan><tspan x="0" y="672">RAM_POOL_</tspan><tspan class="cls-13" x="427.92969" y="672">A</tspan><tspan x="470.75684" y="672" xml:space="preserve"> = 18&apos;b0;</tspan><tspan x="0" y="756">clear = 1&apos;b0;</tspan></text><rect class="cls-2" x="171.46198" y="2498.15662" width="753.53796" height="289.50511" rx="144.75241"/><text class="cls-3" transform="translate(374.33743 2675.0166)">DONE</text><text class="cls-11" transform="translate(218.08789 2943.21289)">ROM_IF_OE = 1&apos;b0;<tspan x="0" y="84">ROM_W_OE = 1&apos;b0;</tspan><tspan x="0" y="168">RAM_CONV_WE = 1&apos;b0;</tspan><tspan x="0" y="252">RAM_CONV_OE = 1&apos;b0;</tspan><tspan x="0" y="336">RAM_POOL_WE = 1&apos;b0;</tspan><tspan x="0" y="420">RAM_POOL_OE = 1&apos;b0;</tspan><tspan class="cls-12"><tspan x="0" y="504">done = 1&apos;b1;</tspan></tspan><tspan x="0" y="588">RAM_CONV_</tspan><tspan class="cls-13" x="435.6543" y="588">A</tspan><tspan x="478.48145" y="588" xml:space="preserve"> = 18&apos;b0;</tspan><tspan x="0" y="672">RAM_POOL_</tspan><tspan class="cls-13" x="427.92969" y="672">A</tspan><tspan x="470.75684" y="672" xml:space="preserve"> = 18&apos;b0;</tspan><tspan x="0" y="756">clear = 1&apos;b0;</tspan></text><rect class="cls-2" x="2886.46204" y="2498.15662" width="753.53796" height="289.50511" rx="144.75241"/><text class="cls-3" transform="translate(2992.22998 2675.01611)">READ_<tspan class="cls-14" x="401.3916" y="0">P</tspan></text><text class="cls-11" transform="translate(2930.08789 2943.21289)">ROM_IF_OE = 1&apos;b0;<tspan x="0" y="84">ROM_W_OE = 1&apos;b0;</tspan><tspan x="0" y="168">RAM_CONV_WE = 1&apos;b0;</tspan><tspan class="cls-12"><tspan x="0" y="252">RAM_CONV_OE = 1&apos;b1;</tspan></tspan><tspan x="0" y="336">RAM_POOL_WE = 1&apos;b0;</tspan><tspan x="0" y="420">RAM_POOL_OE = 1&apos;b0;</tspan><tspan x="0" y="504">done = 1&apos;b0;</tspan><tspan class="cls-12"><tspan x="0" y="588">RAM_CONV_</tspan><tspan class="cls-13" x="435.6543" y="588">A</tspan><tspan x="478.48145" y="588" xml:space="preserve">  </tspan><tspan x="0" y="672">count2==0?18&apos;d256 * row2 + column2:</tspan><tspan x="0" y="756">count2==1?18&apos;d256 * row2 + column2 + 18&apos;b1:</tspan><tspan x="0" y="840">count2==2?18&apos;d256 * (row2 + 18&apos;b1) + column2:</tspan><tspan x="0" y="924">count2==3?18&apos;d256 * (row2 + 18&apos;b1) + column2 + 18&apos;b1:</tspan><tspan x="0" y="1008">count2==4?18&apos;b0;</tspan></tspan><tspan x="0" y="1092">RAM_POOL_</tspan><tspan class="cls-13" x="427.92969" y="1092">A</tspan><tspan x="470.75684" y="1092" xml:space="preserve"> = 18&apos;b0;</tspan><tspan x="0" y="1176">clear = 1&apos;b0;</tspan></text><rect class="cls-2" x="3209.46204" y="674.44788" width="830.53796" height="289.50511" rx="144.75241"/><text class="cls-3" transform="translate(3390.56128 851.30762)">READ_9</text><rect class="cls-2" x="4662.46247" y="2498.15662" width="830.53796" height="289.50511" rx="144.75241"/><text class="cls-3" transform="translate(4833.56934 2675.01611)">READ_C</text><line x1="1196.74468" y1="794.57543" x2="1656.31915" y2="794.57543"/><line class="cls-10" x1="1196.74469" y1="794.57544" x2="1595.96753" y2="794.57544"/><path d="M1656.31909,794.57544c-28.398,10.53711-63.63269,28.51556-85.47351,47.55859l17.202-47.55859-17.202-47.54883C1592.6864,766.06952,1627.92114,784.04816,1656.31909,794.57544Z"/><line x1="4112.74468" y1="794.57543" x2="4572.31915" y2="794.57543"/><line class="cls-10" x1="4112.74469" y1="794.57544" x2="4511.96753" y2="794.57544"/><path d="M4572.31909,794.57544c-28.39795,10.53711-63.63269,28.51556-85.47351,47.55859l17.202-47.55859-17.202-47.54883C4508.6864,766.06952,4543.92114,784.04816,4572.31909,794.57544Z"/><line x1="2605.74468" y1="794.57543" x2="3065.31915" y2="794.57543"/><line class="cls-10" x1="2605.74463" y1="794.57544" x2="3004.96753" y2="794.57544"/><path d="M3065.31909,794.57544c-28.398,10.53711-63.63281,28.51556-85.47363,47.55859l17.20215-47.55859-17.20215-47.54883C3001.68628,766.06952,3036.92114,784.04816,3065.31909,794.57544Z"/><text class="cls-6" transform="translate(2253.26709 2497.74414)">count2==4&apos;d4</text><text class="cls-6" transform="translate(569.26709 2408.74414)"><tspan xml:space="preserve">address2==  18&apos;d16383</tspan></text><line x1="2758.3191" y1="2642.58521" x2="2298.74463" y2="2642.58521"/><line class="cls-10" x1="2758.31909" y1="2642.58521" x2="2359.09619" y2="2642.58521"/><path d="M2298.74463,2642.58521c28.398-10.53711,63.63281-28.51563,85.47363-47.5586l-17.20215,47.5586,17.20215,47.54882C2362.37744,2671.09106,2327.14258,2653.11255,2298.74463,2642.58521Z"/><line x1="1295.31932" y1="2642.58529" x2="951.00022" y2="2642.58529"/><line class="cls-10" x1="1295.31934" y1="2642.58521" x2="1011.35181" y2="2642.58521"/><path d="M951.00021,2642.58521c28.398-10.53711,63.63279-28.51563,85.47361-47.5586l-17.20209,47.5586,17.20209,47.54882C1014.633,2671.09106,979.39819,2653.11255,951.00021,2642.58521Z"/><line x1="2359" y1="4648" x2="2359" y2="4240.2766"/><line class="cls-10" x1="2359" y1="4648" x2="2359" y2="4300.62817"/><path d="M2359,4240.27661c10.53711,28.398,28.51562,63.63281,47.55859,85.47363L2359,4308.5481l-47.54883,17.20214C2330.49414,4303.90942,2348.47266,4268.67456,2359,4240.27661Z"/><path class="cls-10" d="M1043.54312,4709.07446a235.01429,235.01429,0,0,0,54.02329-150.519c.00006-128.79321-102.37348-233.20081-228.65775-233.20129-126.30363-.00049-228.29686,103.70666-228.65852,232.51892a235.93632,235.93632,0,0,0,24.39074,105.57275"/><path d="M698.15585,4713.63672c-24.30932-18.07031-58.58364-37.81848-86.45221-45.75562l49.25142-11.49047,30.49654-40.33313C687.385,4644.74756,691.50912,4684.0885,698.15585,4713.63672Z"/><path class="cls-10" d="M2264.54312,581.07446a235.01429,235.01429,0,0,0,54.02329-150.519c.00006-128.79321-102.37348-233.20081-228.65775-233.20129-126.30363-.00049-228.29686,103.70666-228.65852,232.51892a235.93632,235.93632,0,0,0,24.39074,105.57275"/><path d="M1919.15585,585.63672c-24.30932-18.07031-58.58364-37.81848-86.45221-45.75562l49.25142-11.49047,30.49654-40.33313C1908.385,516.74756,1912.50912,556.0885,1919.15585,585.63672Z"/><path class="cls-10" d="M3799.54321,581.07458a235.01508,235.01508,0,0,0,54.0232-150.51922c0-128.79318-102.37354-233.20079-228.65772-233.20126-126.30371-.00048-228.29687,103.70666-228.65845,232.519a235.93723,235.93723,0,0,0,24.39063,105.57281"/><path d="M3454.15576,585.6366c-24.30932-18.07022-58.58349-37.81836-86.45215-45.75553l49.25147-11.49038,30.49658-40.33316C3443.385,516.74753,3447.509,556.0885,3454.15576,585.6366Z"/><path class="cls-10" d="M3426.71191,2389.85938a180.34671,180.34671,0,0,0,11.04517-62.377c0-98.12573-77.99707-177.67261-174.21143-177.67285-96.229-.00049-173.936,79.0127-174.21167,177.15283a179.01461,179.01461,0,0,0,44.11768,118.67432"/><path d="M3396.59741,2442.16089c22.98975-19.72168,55.80322-41.8125,83.0503-51.67407l-49.93311-8.0271-33.23535-38.10791C3402.53711,2372.68823,3401.167,2412.22119,3396.59741,2442.16089Z"/><path class="cls-10" d="M5249.54321,2404.07458a235.01508,235.01508,0,0,0,54.0232-150.51922c0-128.79318-102.37354-233.20079-228.65772-233.20126-126.30371-.00048-228.29687,103.70666-228.65845,232.519a235.93723,235.93723,0,0,0,24.39063,105.57281"/><path d="M4904.15576,2408.6366c-24.30932-18.07022-58.58349-37.81836-86.45215-45.75553l49.25147-11.49038,30.49658-40.33316C4893.385,2339.74753,4897.509,2379.0885,4904.15576,2408.6366Z"/><line x1="2239.02128" y1="4945.81799" x2="1299.76471" y2="4945.81799"/><line class="cls-10" x1="2239.02124" y1="4945.81787" x2="1360.11633" y2="4945.81787"/><path d="M1299.76471,4945.81787c28.398-10.53686,63.63281-28.51538,85.47357-47.55859l-17.20209,47.55859,17.20209,47.54883C1363.39752,4974.324,1328.16272,4956.34521,1299.76471,4945.81787Z"/><polyline class="cls-10" points="5580.362 2657.5 5878.575 2657.5 5878.575 794.575 5640.713 794.575"/><path d="M5580.36182,794.57544c28.39795-10.53711,63.63281-28.51563,85.47363-47.55859l-17.20215,47.55859,17.20215,47.54877C5643.99463,823.08136,5608.75977,805.10272,5580.36182,794.57544Z"/><polyline class="cls-17" points="4642.781 1836.152 4224.106 1836.152 4224.106 2657 3762.014 2657"/><path class="cls-7" d="M3701.66211,2657c28.39795-10.53711,63.63281-28.51562,85.47363-47.55859L3769.93359,2657l17.20215,47.54883C3765.29492,2685.50586,3730.06006,2667.52734,3701.66211,2657Z"/><polyline class="cls-10" points="4540.606 2657 4417.128 2657 4417.128 1836.152 4417.128 922.957 4124.014 922.957"/><path d="M4600.95752,2657c-28.39795-10.53711-63.63281-28.51562-85.47363-47.55859L4532.686,2657l-17.20215,47.54883C4537.32471,2685.50586,4572.55957,2667.52734,4600.95752,2657Z"/><path d="M4063.66211,922.95746c28.39795-10.53711,63.63281-28.51563,85.47363-47.5586l-17.20215,47.5586,17.20215,47.54877C4127.29492,951.46332,4092.06006,933.48474,4063.66211,922.95746Z"/><polyline class="cls-10" points="1135 2642.909 1135 2149.81 2982 2149.81 2982 2365.493"/><path d="M2982,2425.84473c-10.53711-28.39795-28.51562-63.63282-47.55859-85.47364L2982,2357.57324l47.54883-17.20215C3010.50586,2362.21191,2992.52734,2397.44678,2982,2425.84473Z"/><circle cx="4418.5" cy="1836.5" r="35.5"/></g></svg>