<svg xmlns="http://www.w3.org/2000/svg" viewBox="0 0 619.31974 841.89"><defs><style>.cls-1{fill:#fff;}.cls-2{fill:#c2e4e2;}.cls-10,.cls-13,.cls-2,.cls-3{stroke:#231815;stroke-miterlimit:10;stroke-width:3px;}.cls-3{fill:#f4ddeb;}.cls-4{font-size:41px;font-family:Arial-BoldMT, Arial;font-weight:700;}.cls-11,.cls-12,.cls-4,.cls-5,.cls-6,.cls-8{fill:#231815;}.cls-5{font-size:20px;}.cls-12,.cls-5,.cls-6,.cls-8{font-family:ArialMT, Arial;}.cls-6,.cls-8{font-size:17px;}.cls-7,.cls-8{letter-spacing:-0.0552em;}.cls-9{letter-spacing:-0.05515em;}.cls-10{fill:none;}.cls-12{font-size:12px;}.cls-13{fill:#c6c7e4;}</style></defs><g id="white"><rect class="cls-1" width="619.31974" height="841.89"/></g><g id="block_text" data-name="block text"><rect class="cls-2" x="26.36229" y="84.6383" width="280" height="718.16446"/><rect class="cls-3" x="431.80957" y="63.46917" width="157.61702" height="157.61702"/><text class="cls-4" transform="translate(483.79163 144.72622)">ROM</text><text class="cls-4" transform="translate(34.15006 133.66782)">system</text><text class="cls-4" transform="translate(231.03319 47.28973)">external</text><text class="cls-5" transform="translate(503.49214 166.17285)">rom_if</text><rect class="cls-3" x="431.80957" y="247.31899" width="157.61702" height="157.61702"/><text class="cls-4" transform="translate(483.79112 321.68011)">ROM</text><text class="cls-5" transform="translate(501.61273 343.12675)">rom_w</text><rect class="cls-3" x="431.80957" y="443.72053" width="157.61702" height="157.61702"/><text class="cls-4" transform="translate(485.3947 523.90482)">RAM</text><text class="cls-5" transform="translate(488.17334 545.35147)">ram_conv</text><rect class="cls-3" x="431.80957" y="637.82979" width="157.61702" height="157.61702"/><text class="cls-4" transform="translate(484.93272 718.59882)">RAM</text><text class="cls-5" transform="translate(489.92816 740.04547)">ram_pool</text><text class="cls-5" transform="translate(76.48871 165.82939)">sys1</text><text class="cls-6" transform="translate(196.62537 119.21312)">ROM_IF_OE</text><text class="cls-6" transform="translate(197.96812 149.1152)">ROM_IF_<tspan class="cls-7" x="73.67773" y="0">A</tspan></text><text class="cls-6" transform="translate(197.96799 179.01757)">ROM_IF_Q</text><text class="cls-6" transform="translate(442.07077 119.21312)">OE</text><text class="cls-8" transform="translate(443.41351 149.1152)">A</text><text class="cls-6" transform="translate(443.41339 179.01757)">Q</text><text class="cls-6" transform="translate(199.31061 292.84254)">ROM_W_OE</text><text class="cls-6" transform="translate(199.43253 322.74469)">ROM_W_<tspan class="cls-9" x="74.61523" y="0">A</tspan></text><text class="cls-6" transform="translate(199.66831 352.64699)">ROM_W_Q</text><text class="cls-6" transform="translate(438.03947 292.84254)">OE</text><text class="cls-8" transform="translate(438.16139 322.74469)">A</text><text class="cls-6" transform="translate(438.39717 352.64699)">Q</text><text class="cls-6" transform="translate(164.95746 469.22495)">RAM_CONV_OE</text><text class="cls-6" transform="translate(165.02366 498.04898)">RAM_CONV_WE</text><text class="cls-6" transform="translate(165.53428 526.87167)">RAM_CONV_<tspan class="cls-9" x="105.80176" y="0">A</tspan></text><text class="cls-6" transform="translate(165.72806 555.69565)">RAM_CONV_D</text><text class="cls-6" transform="translate(166.36252 584.51877)">RAM_CONV_Q</text><text class="cls-6" transform="translate(438.67964 469.22495)">OE</text><text class="cls-6" transform="translate(438.74583 498.04898)">WE</text><text class="cls-8" transform="translate(439.25645 526.87167)">A</text><text class="cls-6" transform="translate(439.45024 555.69565)">D</text><text class="cls-6" transform="translate(440.0847 584.51877)">Q</text><text class="cls-6" transform="translate(171.58131 666.25534)">RAM_POOL_OE</text><text class="cls-6" transform="translate(171.6475 695.0791)">RAM_POOL_WE</text><text class="cls-6" transform="translate(172.15812 723.90253)">RAM_POOL_<tspan class="cls-7" x="103.92578" y="0">A</tspan></text><text class="cls-6" transform="translate(172.3519 752.72528)">RAM_POOL_D</text><text class="cls-6" transform="translate(172.98636 781.54913)">RAM_POOL_Q</text><text class="cls-6" transform="translate(437.69462 666.25534)">OE</text><text class="cls-6" transform="translate(437.76082 695.0791)">WE</text><text class="cls-8" transform="translate(438.27144 723.90253)">A</text><text class="cls-6" transform="translate(438.46522 752.72528)">D</text><text class="cls-6" transform="translate(439.09968 781.54913)">Q</text><text class="cls-6" transform="translate(245.93381 428.84183)">DONE</text></g><g id="line"><line class="cls-10" x1="306.36228" y1="112.38902" x2="422.75684" y2="112.38902"/><path class="cls-11" d="M431.80958,112.389c-4.25971,1.58056-9.54493,4.27733-12.821,7.13378l2.58032-7.13378-2.58032-7.13233C422.26465,108.11313,427.54987,110.80992,431.80958,112.389Z"/><line class="cls-10" x1="306.36228" y1="145.25845" x2="422.75684" y2="145.25845"/><path class="cls-11" d="M431.80958,145.25845c-4.25971,1.58056-9.54493,4.27733-12.821,7.13378l2.58032-7.13378-2.58032-7.13233C422.26465,140.98256,427.54987,143.67935,431.80958,145.25845Z"/><line class="cls-10" x1="315.41505" y1="172.80852" x2="431.80958" y2="172.80852"/><path class="cls-11" d="M306.36228,172.80852c4.25971,1.58055,9.54492,4.27733,12.82105,7.13379l-2.58033-7.13379,2.58033-7.13233C315.9072,168.53262,310.622,171.22942,306.36228,172.80852Z"/><line class="cls-10" x1="360.23463" y1="151.61279" x2="375.29846" y2="138.76596"/><text class="cls-12" transform="translate(359.32498 135.11667)">18</text><line class="cls-10" x1="360.23463" y1="179.96044" x2="375.29846" y2="167.1136"/><text class="cls-12" transform="translate(363.57446 163.7492)">9</text><line class="cls-10" x1="306.36228" y1="287.05579" x2="422.75684" y2="287.05579"/><path class="cls-11" d="M431.80958,287.05579c-4.25971,1.58056-9.54493,4.27734-12.821,7.13382l2.58032-7.13382-2.58032-7.1323C422.26465,282.77991,427.54987,285.47672,431.80958,287.05579Z"/><line class="cls-10" x1="306.99436" y1="463.87233" x2="423.38892" y2="463.87233"/><path class="cls-11" d="M432.44166,463.87233c-4.25971,1.58056-9.54493,4.27734-12.82105,7.13381l2.58032-7.13381-2.58032-7.1323C422.89673,459.59645,428.182,462.29325,432.44166,463.87233Z"/><line class="cls-10" x1="305.0429" y1="493.99998" x2="421.43746" y2="493.99998"/><path class="cls-11" d="M430.49019,494c-4.2597,1.58057-9.54492,4.27735-12.821,7.13382L420.24947,494l-2.58032-7.13229C420.94527,489.72411,426.23049,492.42091,430.49019,494Z"/><line class="cls-10" x1="306.36228" y1="524.12764" x2="422.75684" y2="524.12764"/><path class="cls-11" d="M431.80958,524.12764c-4.25971,1.58057-9.54493,4.27735-12.821,7.13382l2.58032-7.13382-2.58032-7.13229C422.26465,519.85177,427.54987,522.54857,431.80958,524.12764Z"/><line class="cls-10" x1="306.99436" y1="552.04254" x2="423.38892" y2="552.04254"/><path class="cls-11" d="M432.44166,552.04254c-4.25971,1.58056-9.54493,4.27734-12.82105,7.13382l2.58032-7.13382-2.58032-7.1323C422.89673,547.76666,428.182,550.46347,432.44166,552.04254Z"/><line class="cls-10" x1="306.36228" y1="319.92523" x2="422.75684" y2="319.92523"/><path class="cls-11" d="M431.80958,319.92523c-4.25971,1.58057-9.54493,4.27735-12.821,7.13379l2.58032-7.13379-2.58032-7.13232C422.26465,315.64935,427.54987,318.34613,431.80958,319.92523Z"/><line class="cls-10" x1="315.41505" y1="347.47531" x2="431.80958" y2="347.47531"/><path class="cls-11" d="M306.36228,347.47531c4.25971,1.58057,9.54492,4.27731,12.82105,7.13379l-2.58033-7.13379,2.58033-7.13232C315.9072,343.1994,310.622,345.89621,306.36228,347.47531Z"/><line class="cls-10" x1="314.09566" y1="578.59576" x2="430.49019" y2="578.59576"/><path class="cls-11" d="M305.0429,578.59576c4.2597,1.58056,9.54492,4.27731,12.821,7.13379l-2.58032-7.13379,2.58032-7.13233C314.58782,574.31985,309.3026,577.01666,305.0429,578.59576Z"/><line class="cls-10" x1="360.23463" y1="326.27958" x2="375.29846" y2="313.43275"/><text class="cls-12" transform="translate(359.32498 309.78345)">18</text><line class="cls-10" x1="360.23463" y1="530.70699" x2="375.29846" y2="517.86016"/><text class="cls-12" transform="translate(359.32498 514.21085)">18</text><line class="cls-10" x1="360.23463" y1="354.62722" x2="375.29846" y2="341.78039"/><text class="cls-12" transform="translate(363.57446 338.41599)">9</text><line class="cls-10" x1="360.23463" y1="559.46731" x2="375.29846" y2="546.62047"/><text class="cls-12" transform="translate(363.57446 543.25607)">9</text><line class="cls-10" x1="360.23463" y1="586.70147" x2="375.29846" y2="573.85463"/><text class="cls-12" transform="translate(363.57446 570.49023)">9</text><line class="cls-10" x1="306.99436" y1="662.48776" x2="423.38892" y2="662.48776"/><path class="cls-11" d="M432.44166,662.48776c-4.25971,1.58057-9.54493,4.27735-12.82105,7.13382l2.58032-7.13382-2.58032-7.13229C422.89673,658.21189,428.182,660.90869,432.44166,662.48776Z"/><line class="cls-10" x1="305.0429" y1="692.61542" x2="421.43746" y2="692.61542"/><path class="cls-11" d="M430.49019,692.61542c-4.2597,1.58057-9.54492,4.27735-12.821,7.13382l2.58032-7.13382-2.58032-7.13229C420.94527,688.33955,426.23049,691.03635,430.49019,692.61542Z"/><line class="cls-10" x1="306.36228" y1="722.74308" x2="422.75684" y2="722.74308"/><path class="cls-11" d="M431.80958,722.74308c-4.25971,1.58057-9.54493,4.27735-12.821,7.13382l2.58032-7.13382-2.58032-7.13229C422.26465,718.4672,427.54987,721.164,431.80958,722.74308Z"/><line class="cls-10" x1="306.99436" y1="750.65798" x2="423.38892" y2="750.65798"/><path class="cls-11" d="M432.44166,750.658c-4.25971,1.58056-9.54493,4.27734-12.82105,7.13382l2.58032-7.13382-2.58032-7.1323C422.89673,746.3821,428.182,749.07891,432.44166,750.658Z"/><line class="cls-10" x1="314.09566" y1="777.2112" x2="430.49019" y2="777.2112"/><path class="cls-11" d="M305.0429,777.2112c4.2597,1.58056,9.54492,4.27731,12.821,7.13379l-2.58032-7.13379,2.58032-7.13233C314.58782,772.93529,309.3026,775.6321,305.0429,777.2112Z"/><line class="cls-10" x1="360.23463" y1="729.32243" x2="375.29846" y2="716.47559"/><text class="cls-12" transform="translate(359.32498 712.82629)">18</text><line class="cls-10" x1="360.23463" y1="758.08275" x2="375.29846" y2="745.23591"/><text class="cls-12" transform="translate(363.57446 741.87152)">9</text><line class="cls-10" x1="360.23463" y1="785.31691" x2="375.29846" y2="772.47007"/><text class="cls-12" transform="translate(363.57446 769.10565)">9</text><line class="cls-10" x1="547.89421" y1="425.40426" x2="306.99437" y2="425.40426"/><polygon class="cls-13" points="547.894 416.466 547.894 433.915 579.554 433.915 596.235 425.404 579.894 416.466 547.894 416.466"/></g></svg>